<?xml version="1.0" encoding="UTF-8"?>
<svg version="1.1" xmlns="http://www.w3.org/2000/svg" width="500" height="500">
<path d="M0 0 C7.95963956 3.94191673 11.69497953 11.55336695 15.92236328 18.97607422 C18.06662483 22.70801559 20.33268095 26.36448479 22.5859375 30.03125 C23.04162109 30.77938965 23.49730469 31.5275293 23.96679688 32.29833984 C27.30071069 37.76898933 30.71122861 43.1875569 34.1484375 48.59375 C39.33021451 56.7524709 44.32345225 65.01398409 49.27734375 73.3125 C55.75629738 84.16415989 62.37136479 94.92585059 69.1484375 105.59375 C73.4670748 112.39514372 77.6884906 119.24907597 81.8359375 126.15625 C82.34503662 127.00300293 82.85413574 127.84975586 83.37866211 128.72216797 C88.12352541 136.6607048 90.1853624 141.73028757 89.2109375 151.21875 C87.51068289 157.12133845 84.27736324 160.74179116 79.2109375 164.21875 C74.2575676 166.87889309 69.80087938 168.15040698 64.2109375 167.21875 C55.21135066 164.37194192 49.34928875 159.43374355 44.9609375 151.21875 C44.62320313 150.61546875 44.28546875 150.0121875 43.9375 149.390625 C42.10696452 146.07548201 40.58356232 142.74277253 39.2109375 139.21875 C37.95023438 139.23969727 36.68953125 139.26064453 35.390625 139.28222656 C30.68680299 139.35495087 25.9830301 139.40066736 21.27880859 139.43847656 C19.24779893 139.45851836 17.21684644 139.48575947 15.18603516 139.52050781 C12.25669194 139.56935414 9.3281155 139.59179343 6.3984375 139.609375 C5.49915527 139.63002014 4.59987305 139.65066528 3.67333984 139.67193604 C-3.27146803 139.67437498 -8.4317723 137.99920848 -13.8125 133.54296875 C-17.96348763 128.51619471 -20.19350354 123.89738911 -19.6015625 117.21875 C-18.47614026 110.53089599 -16.02640247 105.60349974 -10.7890625 101.21875 C-5.12831676 97.98403815 -0.4946906 97.10814397 5.9609375 96.65625 C7.13140625 96.57246094 8.301875 96.48867188 9.5078125 96.40234375 C10.39984375 96.34175781 11.291875 96.28117187 12.2109375 96.21875 C5.60842763 85.17873162 -1.00708498 74.14970201 -7.7890625 63.21875 C-10.86403697 66.84389855 -13.15710782 70.50092212 -15.36328125 74.70703125 C-15.68846741 75.32272476 -16.01365356 75.93841827 -16.34869385 76.57276917 C-17.03952601 77.88171268 -17.72808523 79.19185799 -18.41452026 80.50311279 C-20.20008071 83.91292217 -22.00321822 87.31342053 -23.8046875 90.71484375 C-24.15526718 91.37776428 -24.50584686 92.04068481 -24.86705017 92.72369385 C-28.38070504 99.35820755 -32.03591551 105.90614223 -35.76367188 112.42236328 C-37.68241888 115.78382529 -39.57869735 119.1579681 -41.4765625 122.53125 C-41.85683594 123.20671875 -42.23710937 123.8821875 -42.62890625 124.578125 C-44.68573157 128.23710899 -46.72208067 131.90572865 -48.7265625 135.59375 C-49.18804687 136.439375 -49.64953125 137.285 -50.125 138.15625 C-51.06551884 139.88715791 -52.00379951 141.61929952 -52.93457031 143.35546875 C-54.23209268 145.77271596 -55.54134097 148.18336636 -56.8515625 150.59375 C-57.46922485 151.75463135 -57.46922485 151.75463135 -58.09936523 152.93896484 C-61.499472 159.15905252 -65.3128489 163.9806432 -71.7890625 167.21875 C-77.95246669 169.00289332 -83.8962436 168.72633251 -89.7890625 166.21875 C-95.60849231 162.84348071 -99.98003103 158.85186538 -101.7890625 152.21875 C-103.19498225 141.50393735 -97.70035046 132.63238273 -92.4140625 123.71875 C-87.64508612 115.53219336 -83.06855508 107.26134876 -78.6015625 98.90625 C-73.78294813 89.9046154 -68.89624989 80.95350216 -63.84667969 72.07958984 C-61.92231362 68.69373616 -60.01237572 65.29976415 -58.1015625 61.90625 C-57.75697998 61.2963623 -57.41239746 60.68647461 -57.05737305 60.05810547 C-52.72082007 52.36352486 -48.52059839 44.59495863 -44.3515625 36.80859375 C-43.76632813 35.71611328 -43.18109375 34.62363281 -42.578125 33.49804688 C-41.38379096 31.26714562 -40.19108641 29.03537124 -39 26.80273438 C-21.40873191 -5.99684367 -21.40873191 -5.99684367 0 0 Z " fill="#4EA8F9" transform="translate(259.7890625,166.78125)"/>
<path d="M0 0 C0.99 0.495 0.99 0.495 2 1 C2.36303711 2.97094727 2.36303711 2.97094727 2.52734375 5.56640625 C2.5955835 6.519104 2.66382324 7.47180176 2.73413086 8.45336914 C2.80124268 9.47938232 2.86835449 10.50539551 2.9375 11.5625 C3.77256894 22.55573754 5.3884066 32.98956872 7.859375 43.73828125 C10.64867951 55.98753833 11.17891696 64.43220551 5.05859375 75.7109375 C4.18968506 77.3192041 4.18968506 77.3192041 3.30322266 78.95996094 C2.37968994 80.65040527 2.37968994 80.65040527 1.4375 82.375 C0.79970402 83.54966169 0.16217323 84.72446741 -0.47509766 85.89941406 C-4.90120745 94.04596063 -9.38696612 102.15700639 -13.98535156 110.20751953 C-15.05521157 112.0975369 -16.10316742 113.99862788 -17.1484375 115.90234375 C-17.84893742 117.16407411 -18.54945744 118.42579331 -19.25 119.6875 C-19.85328125 120.78449219 -20.4565625 121.88148438 -21.078125 123.01171875 C-24.60186553 128.49070555 -29.01708436 132.84705074 -35.375 134.6875 C-44.03110033 135.71798814 -50.03071954 134.30271339 -57 129 C-61.67202571 123.93863881 -63.52753028 119.40834696 -63.30029297 112.56152344 C-62.36568328 104.58922681 -57.64616525 97.28040819 -53.625 90.5 C-48.85602362 82.31344336 -44.27949258 74.04259876 -39.8125 65.6875 C-34.99388563 56.6858654 -30.10718739 47.73475216 -25.05761719 38.86083984 C-15.15499289 21.62983579 -15.15499289 21.62983579 -6 4 C-5.01 4.33 -4.02 4.66 -3 5 C-2.01 3.35 -1.02 1.7 0 0 Z " fill="#4EA6F7" transform="translate(221,200)"/>
<path d="M0 0 C0.33 0 0.66 0 1 0 C1.03867188 1.485 1.03867188 1.485 1.078125 3 C1.3603011 10.5196118 1.85408462 16.57213664 6 23 C6.70074048 24.18637475 7.39689321 25.37546468 8.08984375 26.56640625 C11.81517848 32.92322743 15.69117794 39.0204102 20 45 C20.70674629 46.31252882 21.39963272 47.63552891 22 49 C22.66 49 23.32 49 24 49 C24.495 52.465 24.495 52.465 25 56 C23.68 55.01 22.36 54.02 21 53 C20.64284912 53.66418945 20.28569824 54.32837891 19.91772461 55.01269531 C6.80801859 79.36924918 6.80801859 79.36924918 1 89 C-0.20783153 86.58433694 -0.02373341 85.22519721 0.0859375 82.5390625 C0.14084757 76.87112304 -0.98025156 71.84134101 -2.375 66.375 C-5.7558562 52.32080442 -7.21276397 38.41884938 -8 24 C-10.51083114 25.25541557 -10.87125446 26.50063488 -12 29 C-13.25390625 27.48046875 -13.25390625 27.48046875 -14 25 C-12.76723115 22.24209414 -11.50666946 19.86733464 -9.9375 17.3125 C-9.09364776 15.88157071 -8.24989718 14.45058145 -7.40625 13.01953125 C-6.78556641 11.98626709 -6.78556641 11.98626709 -6.15234375 10.93212891 C-4.69246003 8.4843493 -3.3083199 5.99855836 -1.9375 3.5 C-1.55464844 2.8090625 -1.17179688 2.118125 -0.77734375 1.40625 C-0.39255859 0.71015625 -0.39255859 0.71015625 0 0 Z " fill="#1E75BF" transform="translate(230,177)"/>
<path d="M0 0 C4.6663019 4.6663019 6.2058267 8.31368118 6.4375 14.875 C6.22813843 22.22086035 4.35713742 26.64286258 -0.8125 31.8125 C-6.56268153 35.75870301 -11.93995965 38.17667339 -19 37 C-27.99958684 34.15319192 -33.86164875 29.21499355 -38.25 21 C-38.58773437 20.39671875 -38.92546875 19.7934375 -39.2734375 19.171875 C-41.10397298 15.85673201 -42.62737518 12.52402253 -44 9 C-45.27641357 9.01047363 -46.55282715 9.02094727 -47.86791992 9.03173828 C-52.61089261 9.06798281 -57.35385309 9.09091677 -62.09692383 9.10986328 C-64.14837707 9.11991069 -66.19981604 9.13355092 -68.2512207 9.15087891 C-71.20267262 9.17518246 -74.1539349 9.18649582 -77.10546875 9.1953125 C-78.02023483 9.20563507 -78.93500092 9.21595764 -79.87748718 9.22659302 C-84.36493055 9.22738078 -87.92668284 9.13839902 -92 7 C-88.41055063 5.93106873 -85.57941165 6.25430821 -81.87408447 6.72436523 C-76.24389063 7.26432054 -70.58051641 7.20958626 -64.92827988 7.26036072 C-62.57322421 7.28164737 -60.21829186 7.30864252 -57.86331177 7.33703613 C-52.01977852 7.40635421 -46.17615557 7.46616109 -40.33251953 7.52606201 C-35.37855724 7.57718908 -30.42466365 7.63205675 -25.47079849 7.69187927 C-23.16047518 7.71825579 -20.85014445 7.73918209 -18.5397644 7.7598877 C-17.11358324 7.77650307 -15.68740505 7.79337598 -14.26123047 7.81054688 C-13.02484833 7.82307495 -11.78846619 7.83560303 -10.51461792 7.84851074 C-6.95231503 8.00205535 -3.51874173 8.43611015 0 9 C0 6.03 0 3.06 0 0 Z " fill="#4C9FEA" transform="translate(343,297)"/>
<path d="M0 0 C0.7726071 2.74025122 1.1118627 5.15704603 1.10546875 8 C1.31842151 23.49034156 4.45329643 37.96722762 8 53 C10.28907966 62.70306781 10.28907966 62.70306781 9 67 C8.87496094 67.67804688 8.74992187 68.35609375 8.62109375 69.0546875 C7.61395237 74.4442549 5.94932505 78.37939075 3 83 C1.79216847 80.58433694 1.97626659 79.22519721 2.0859375 76.5390625 C2.14084757 70.87112304 1.01974844 65.84134101 -0.375 60.375 C-3.7558562 46.32080442 -5.21276397 32.41884938 -6 18 C-8.51083114 19.25541557 -8.87125446 20.50063488 -10 23 C-11.10424805 21.23657227 -11.10424805 21.23657227 -12 19 C-11.44848633 17.12475586 -11.44848633 17.12475586 -10.33203125 15.21484375 C-9.73358398 14.17166992 -9.73358398 14.17166992 -9.12304688 13.10742188 C-8.69056641 12.39134766 -8.25808594 11.67527344 -7.8125 10.9375 C-7.39935547 10.21755859 -6.98621094 9.49761719 -6.56054688 8.75585938 C-4.6238043 5.43968806 -2.81496002 2.6434337 0 0 Z " fill="#2D8CDF" transform="translate(228,183)"/>
<path d="M0 0 C4.72580127 4.72580127 6.20219376 8.359303 6.375 15 C6.26656692 19.84334436 5.67879964 22.98180055 3 27 C1.66667905 24.3333581 2.32897967 22.83319697 3 20 C1.68 20.33 0.36 20.66 -1 21 C-0.505 19.515 -0.505 19.515 0 18 C-3.0549278 16.4725361 -6.2763314 16.76008168 -9.6328125 16.68359375 C-10.38464813 16.66281265 -11.13648376 16.64203156 -11.91110229 16.62062073 C-14.31564085 16.55517295 -16.72028967 16.49626262 -19.125 16.4375 C-20.75391771 16.39431023 -22.38282422 16.35069579 -24.01171875 16.30664062 C-28.00769915 16.19949649 -32.00379059 16.09821567 -36 16 C-35.34 18.31 -34.68 20.62 -34 23 C-34.66 23.66 -35.32 24.32 -36 25 C-36.96189997 23.27281484 -37.91936508 21.54315942 -38.875 19.8125 C-39.40867187 18.84957031 -39.94234375 17.88664062 -40.4921875 16.89453125 C-41.84378032 14.29989323 -42.93719966 11.72116993 -44 9 C-45.27641357 9.01047363 -46.55282715 9.02094727 -47.86791992 9.03173828 C-52.61089261 9.06798281 -57.35385309 9.09091677 -62.09692383 9.10986328 C-64.14837707 9.11991069 -66.19981604 9.13355092 -68.2512207 9.15087891 C-71.20267262 9.17518246 -74.1539349 9.18649582 -77.10546875 9.1953125 C-78.02023483 9.20563507 -78.93500092 9.21595764 -79.87748718 9.22659302 C-84.36493055 9.22738078 -87.92668284 9.13839902 -92 7 C-88.41055063 5.93106873 -85.57941165 6.25430821 -81.87408447 6.72436523 C-76.24389063 7.26432054 -70.58051641 7.20958626 -64.92827988 7.26036072 C-62.57322421 7.28164737 -60.21829186 7.30864252 -57.86331177 7.33703613 C-52.01977852 7.40635421 -46.17615557 7.46616109 -40.33251953 7.52606201 C-35.37855724 7.57718908 -30.42466365 7.63205675 -25.47079849 7.69187927 C-23.16047518 7.71825579 -20.85014445 7.73918209 -18.5397644 7.7598877 C-17.11358324 7.77650307 -15.68740505 7.79337598 -14.26123047 7.81054688 C-13.02484833 7.82307495 -11.78846619 7.83560303 -10.51461792 7.84851074 C-6.95231503 8.00205535 -3.51874173 8.43611015 0 9 C0 6.03 0 3.06 0 0 Z " fill="#1F6EB3" transform="translate(343,297)"/>
<path d="M0 0 C4.78717542 -0.04943465 9.57420227 -0.08573582 14.36157227 -0.10986328 C15.99017932 -0.11992142 17.61876832 -0.13356958 19.24731445 -0.15087891 C21.58809872 -0.17513574 23.92864424 -0.18648483 26.26953125 -0.1953125 C27.36186821 -0.21079636 27.36186821 -0.21079636 28.47627258 -0.22659302 C32.21275069 -0.22742249 33.80675056 -0.12883296 37 2 C36.27294922 3.92236328 36.27294922 3.92236328 35 6 C28.23862777 8.84662714 20.063832 8.24389926 12.875 8.125 C11.823125 8.11597656 10.77125 8.10695313 9.6875 8.09765625 C7.12475122 8.07435853 4.56250488 8.04165112 2 8 C1.67 8.66 1.34 9.32 1 10 C0.67 6.7 0.34 3.4 0 0 Z " fill="#308FE2" transform="translate(307,313)"/>
<path d="M0 0 C2.6618004 2.6618004 2.29866602 4.04249263 2.3125 7.75 C2.24679051 12.72002661 1.74674319 15.87988521 -1 20 C-2.33332095 17.3333581 -1.67102033 15.83319697 -1 13 C-2.32 13.33 -3.64 13.66 -5 14 C-4.67 13.01 -4.34 12.02 -4 11 C-6.29629994 9.85185003 -8.07698086 9.69230191 -10.625 9.4375 C-11.44226563 9.35371094 -12.25953125 9.26992188 -13.1015625 9.18359375 C-13.72804688 9.12300781 -14.35453125 9.06242187 -15 9 C-13.68 8.34 -12.36 7.68 -11 7 C-11 6.01 -11 5.02 -11 4 C-8.3125 3.1875 -8.3125 3.1875 -5 3 C-2.125 5.4375 -2.125 5.4375 0 8 C0 5.36 0 2.72 0 0 Z " fill="#1A63A3" transform="translate(347,304)"/>
<path d="M0 0 C7.23418142 0.12600521 12.11132251 1.61466051 17.5 6.5 C19.80982115 9.35248998 21.74057688 12.28154307 23.5 15.5 C23.17 16.16 22.84 16.82 22.5 17.5 C21.736875 16.984375 20.97375 16.46875 20.1875 15.9375 C19.300625 15.463125 18.41375 14.98875 17.5 14.5 C16.51 14.83 15.52 15.16 14.5 15.5 C14.5 13.52 14.5 11.54 14.5 9.5 C13.84 9.5 13.18 9.5 12.5 9.5 C12.17 8.51 11.84 7.52 11.5 6.5 C9.48491642 5.76676204 9.48491642 5.76676204 7.5 5.5 C7.17 4.18 6.84 2.86 6.5 1.5 C1.55 1.83 -3.4 2.16 -8.5 2.5 C-5.71747826 -0.28252174 -3.89045798 0.10149021 0 0 Z " fill="#53A8EC" transform="translate(249.5,165.5)"/>
<path d="M0 0 C1 3 1 3 0.01196289 5.26831055 C-0.7499939 6.56442261 -0.7499939 6.56442261 -1.52734375 7.88671875 C-2.07197266 8.82451172 -2.61660156 9.76230469 -3.17773438 10.72851562 C-3.75845703 11.70498047 -4.33917969 12.68144531 -4.9375 13.6875 C-5.51435547 14.67556641 -6.09121094 15.66363281 -6.68554688 16.68164062 C-8.11470514 19.12656427 -9.55310857 21.56554274 -11 24 C-11.33 24 -11.66 24 -12 24 C-11.67 21.36 -11.34 18.72 -11 16 C-10.01 16 -9.02 16 -8 16 C-8 15.38511719 -8 14.77023437 -8 14.13671875 C-8 10.7578125 -8 7.37890625 -8 4 C-5.09399739 2.74335022 -3.20395416 2 0 2 C0 1.34 0 0.68 0 0 Z " fill="#478AC8" transform="translate(225,273)"/>
<path d="M0 0 C3.08565497 2.71576573 5.07287319 6.08655828 7.1875 9.5625 C7.73954102 10.44711914 7.73954102 10.44711914 8.30273438 11.34960938 C11 15.74830415 11 15.74830415 11 18 C9.02 18.66 7.04 19.32 5 20 C2.93370307 16.69392491 2.6704843 13.67384583 2.28515625 9.890625 C1.94651266 7.64537159 1.0656094 5.98913754 0 4 C0 2.68 0 1.36 0 0 Z " fill="#50A8F5" transform="translate(319,258)"/>
<path d="M0 0 C0.66 0.99 1.32 1.98 2 3 C1.67 3.99 1.34 4.98 1 6 C0.34 6 -0.32 6 -1 6 C-1.24255308 15.56083825 -1.24255308 15.56083825 0 25 C0.66 25.33 1.32 25.66 2 26 C1.01 26 0.02 26 -1 26 C-4.19002288 20.59083077 -5.96083456 14.98158783 -4.45703125 8.75 C-3.29960074 5.55384671 -1.88517054 2.82775582 0 0 Z " fill="#376187" transform="translate(245,272)"/>
<path d="M0 0 C0.66 0 1.32 0 2 0 C2 0.99 2 1.98 2 3 C-4.05939019 8.20235485 -10.17452175 9.41186728 -18 9 C-21.48129855 8.0804117 -23.45027255 7.54972745 -26 5 C-22.7 5.33 -19.4 5.66 -16 6 C-16 6.66 -16 7.32 -16 8 C-15.01 7.34 -14.02 6.68 -13 6 C-10.67612053 5.60612212 -8.34206251 5.26513915 -6 5 C-6 4.34 -6 3.68 -6 3 C-4.02 2.34 -2.04 1.68 0 1 C0 0.67 0 0.34 0 0 Z " fill="#4379AC" transform="translate(194,326)"/>
<path d="M0 0 C4.25227261 4.25227261 4.91735702 8.68599663 5.125 14.5 C5.08375 15.325 5.0425 16.15 5 17 C4.2575 16.236875 3.515 15.47375 2.75 14.6875 C0.5736677 12.5606298 -1.52167796 10.7440044 -4 9 C-2.68 9 -1.36 9 0 9 C0 6.03 0 3.06 0 0 Z " fill="#4589C9" transform="translate(343,297)"/>
<path d="M0 0 C-1.68416016 0.12955078 -1.68416016 0.12955078 -3.40234375 0.26171875 C-14.45221302 1.20154695 -14.45221302 1.20154695 -24.3359375 5.9765625 C-26 7 -26 7 -29 7 C-29 6.34 -29 5.68 -29 5 C-27.58671871 4.18162558 -26.16921654 3.37053781 -24.75 2.5625 C-23.96109375 2.11003906 -23.1721875 1.65757812 -22.359375 1.19140625 C-17.97657668 -1.02176178 -13.74948834 -1.29570918 -8.875 -1.6875 C-7.63492187 -1.79449219 -6.39484375 -1.90148437 -5.1171875 -2.01171875 C-2 -2 -2 -2 0 0 Z " fill="#294974" transform="translate(275,265)"/>
<path d="M0 0 C-1.31497169 2.62994337 -2.27199218 2.92315481 -5 4 C-6.11375 4.12375 -7.2275 4.2475 -8.375 4.375 C-12.66376225 5.11444177 -14.57878448 6.41322729 -18 9 C-18 6 -18 6 -16.85546875 4.39453125 C-11.56317141 -0.62509503 -7.07906656 -0.69126509 0 0 Z " fill="#3F7BB7" transform="translate(250,168)"/>
<path d="M0 0 C1.32457359 2.64914719 0.84321797 4.04614848 0.3125 6.9375 C0.16425781 7.81277344 0.01601562 8.68804687 -0.13671875 9.58984375 C-1.18867048 12.52674065 -2.33095562 13.45368939 -5 15 C-5.66 15 -6.32 15 -7 15 C-7.33 16.65 -7.66 18.3 -8 20 C-8.66 20 -9.32 20 -10 20 C-8.65453774 14.88724343 -6.20550462 10.80983492 -3.4375 6.3671875 C-2.17257822 4.28419131 -1.05249736 2.19607622 0 0 Z " fill="#336091" transform="translate(195,241)"/>
<path d="M0 0 C7.28123005 0.06005138 11.81014304 2.09494945 17.5 6.5 C17.17 7.16 16.84 7.82 16.5 8.5 C15.01515588 8.10404157 13.5371169 7.68249294 12.0625 7.25 C11.23878906 7.01796875 10.41507812 6.7859375 9.56640625 6.546875 C8.88449219 6.20140625 8.20257813 5.8559375 7.5 5.5 C7.17 4.18 6.84 2.86 6.5 1.5 C1.55 1.83 -3.4 2.16 -8.5 2.5 C-5.71747826 -0.28252174 -3.89045798 0.10149021 0 0 Z " fill="#31608C" transform="translate(249.5,165.5)"/>
<path d="M0 0 C2.97569363 2.78809555 5.16048288 5.56414179 7.25 9.0625 C7.77078125 9.91972656 8.2915625 10.77695313 8.828125 11.66015625 C10 14 10 14 10 17 C6.44747865 15.36776046 5.14190547 14.27329943 3.3125 10.75 C2.0633927 7.181122 0.96903463 3.65251515 0 0 Z " fill="#34668F" transform="translate(293,216)"/>
<path d="M0 0 C0.33 0.66 0.66 1.32 1 2 C-0.24282012 4.45038293 -1.52882339 6.773325 -2.9375 9.125 C-3.32357422 9.78371094 -3.70964844 10.44242187 -4.10742188 11.12109375 C-5.06446578 12.751613 -6.03132815 14.37636184 -7 16 C-7.33 16 -7.66 16 -8 16 C-7.67 13.36 -7.34 10.72 -7 8 C-6.01 8 -5.02 8 -4 8 C-4.0825 7.236875 -4.165 6.47375 -4.25 5.6875 C-4 3 -4 3 -2 1.1875 C-1.34 0.795625 -0.68 0.40375 0 0 Z " fill="#356491" transform="translate(221,281)"/>
<path d="M0 0 C2 3 2 3 1.625 5.6875 C1.41875 6.450625 1.2125 7.21375 1 8 C0.01 8.33 -0.98 8.66 -2 9 C-2.495 10.2375 -2.495 10.2375 -3 11.5 C-3.495 12.7375 -3.495 12.7375 -4 14 C-4.99 14.33 -5.98 14.66 -7 15 C-5.45454854 9.52067211 -2.84456788 4.88570819 0 0 Z " fill="#366698" transform="translate(203,226)"/>
<path d="M0 0 C1.67987227 1.31665664 3.34466005 2.65263027 5 4 C5.556875 4.433125 6.11375 4.86625 6.6875 5.3125 C8.71434261 7.91844049 9.22366759 10.83495249 10 14 C9.34 14.66 8.68 15.32 8 16 C7.03810003 14.27281484 6.08063492 12.54315942 5.125 10.8125 C4.59132813 9.84957031 4.05765625 8.88664062 3.5078125 7.89453125 C2.1576322 5.30260482 1.02901671 2.73238902 0 0 Z " fill="#215887" transform="translate(299,306)"/>
<path d="M0 0 C0.33 0.66 0.66 1.32 1 2 C-0.24125182 4.61161731 -1.5310524 7.10501786 -2.9375 9.625 C-3.32357422 10.33140625 -3.70964844 11.0378125 -4.10742188 11.765625 C-5.06448696 13.51433651 -6.03134031 15.25768432 -7 17 C-7.33 17 -7.66 17 -8 17 C-8 15.02 -8 13.04 -8 11 C-7.01 10.67 -6.02 10.34 -5 10 C-5 8.35 -5 6.7 -5 5 C-4.34 5 -3.68 5 -3 5 C-3 4.01 -3 3.02 -3 2 C-2.01 1.34 -1.02 0.68 0 0 Z " fill="#1B436F" transform="translate(244,239)"/>
<path d="M0 0 C1.1914033 3.95134476 0.76708665 6.21338575 -1 10 C-3.125 10.875 -3.125 10.875 -5 11 C-5 11.99 -5 12.98 -5 14 C-5.66 14 -6.32 14 -7 14 C-5.23570801 9.02790438 -2.6060834 4.56561939 0 0 Z " fill="#356696" transform="translate(172,283)"/>
<path d="M0 0 C1.2380014 3.57644848 0.74926071 6.33694766 0 10 C-0.66 10 -1.32 10 -2 10 C-2.33 10.99 -2.66 11.98 -3 13 C-3.99 13 -4.98 13 -6 13 C-4.58707905 8.1725201 -2.57025846 4.2837641 0 0 Z " fill="#447AB2" transform="translate(183,263)"/>
<path d="M0 0 C0.99 0.33 1.98 0.66 3 1 C1.23570801 5.97209562 -1.3939166 10.43438061 -4 15 C-4.33 13.68 -4.66 12.36 -5 11 C-4.34 11 -3.68 11 -3 11 C-3 9.02 -3 7.04 -3 5 C-2.01 5 -1.02 5 0 5 C0 3.35 0 1.7 0 0 Z " fill="#376492" transform="translate(202,311)"/>
<path d="M0 0 C0.33 0 0.66 0 1 0 C1 2.31 1 4.62 1 7 C0.34 7 -0.32 7 -1 7 C-1 7.66 -1 8.32 -1 9 C-1.66 9 -2.32 9 -3 9 C-3.33 10.65 -3.66 12.3 -4 14 C-4.99 14.33 -5.98 14.66 -7 15 C-5.63408831 11.45756548 -4.09068516 8.07372071 -2.375 4.6875 C-1.70597656 3.36298828 -1.70597656 3.36298828 -1.0234375 2.01171875 C-0.68570313 1.34785156 -0.34796875 0.68398437 0 0 Z " fill="#3E73AB" transform="translate(226,184)"/>
<path d="M0 0 C1.875 0.25 1.875 0.25 4 1 C5.3125 2.9375 5.3125 2.9375 6 5 C5.67 5.66 5.34 6.32 5 7 C5.99 7.33 6.98 7.66 8 8 C7.34 9.32 6.68 10.64 6 12 C4.99466333 10.37829621 3.99588093 8.75252763 3 7.125 C2.443125 6.22007812 1.88625 5.31515625 1.3125 4.3828125 C0 2 0 2 0 0 Z " fill="#33608B" transform="translate(255,233)"/>
<path d="M0 0 C3.67758005 3.28355362 5.81389118 6.62778237 8 11 C7.67 11.66 7.34 12.32 7 13 C6.34 12.67 5.68 12.34 5 12 C5 11.34 5 10.68 5 10 C4.34 10 3.68 10 3 10 C0.96564469 6.27034861 0 4.33094958 0 0 Z " fill="#35608B" transform="translate(282,198)"/>
<path d="M0 0 C0 0.99 0 1.98 0 3 C-3.15830185 6.06806466 -5.61999924 7.49942848 -10 8 C-9.34 7.67 -8.68 7.34 -8 7 C-7.34786708 4.97536745 -7.34786708 4.97536745 -7 3 C-6.34 3 -5.68 3 -5 3 C-4.67 2.34 -4.34 1.68 -4 1 C-1.9375 0.375 -1.9375 0.375 0 0 Z " fill="#356393" transform="translate(344,324)"/>
<path d="M0 0 C0 3.72207387 -1.17964568 5.46395589 -3 8.6875 C-3.8353125 10.17830078 -3.8353125 10.17830078 -4.6875 11.69921875 C-5.3371875 12.83810547 -5.3371875 12.83810547 -6 14 C-6.33 14 -6.66 14 -7 14 C-7 11.69 -7 9.38 -7 7 C-6.34 7 -5.68 7 -5 7 C-4.9175 6.21625 -4.835 5.4325 -4.75 4.625 C-4 2 -4 2 -1.9375 0.6875 C-1.298125 0.460625 -0.65875 0.23375 0 0 Z " fill="#35608F" transform="translate(212,298)"/>
<path d="M0 0 C0.73605469 0.01353516 1.47210938 0.02707031 2.23046875 0.04101562 C4.02896743 0.07605131 5.82708422 0.12984712 7.625 0.1875 C7.625 0.8475 7.625 1.5075 7.625 2.1875 C6.66078125 2.16429687 5.6965625 2.14109375 4.703125 2.1171875 C3.43984375 2.09914063 2.1765625 2.08109375 0.875 2.0625 C-1.00445312 2.02769531 -1.00445312 2.02769531 -2.921875 1.9921875 C-7.34378935 2.24229578 -9.28728043 3.09978043 -12.375 6.1875 C-12.375 5.5275 -12.375 4.8675 -12.375 4.1875 C-13.035 3.8575 -13.695 3.5275 -14.375 3.1875 C-9.35513301 0.17082915 -5.66176196 -0.19964622 0 0 Z " fill="#5BA6EF" transform="translate(266.375,265.8125)"/>
<path d="M0 0 C0.61875 0.639375 1.2375 1.27875 1.875 1.9375 C3.82597612 4.03883584 3.82597612 4.03883584 6 5 C5.67 6.32 5.34 7.64 5 9 C1.04 9 -2.92 9 -7 9 C-7 8.67 -7 8.34 -7 8 C-3.7 7.67 -0.4 7.34 3 7 C1.68 5.68 0.36 4.36 -1 3 C-0.67 2.01 -0.34 1.02 0 0 Z " fill="#4C82B3" transform="translate(271,257)"/>
<path d="M0 0 C0.33 0 0.66 0 1 0 C1 2.31 1 4.62 1 7 C0.38125 7.2475 -0.2375 7.495 -0.875 7.75 C-3.35068687 9.20628639 -3.95125002 10.37812506 -5 13 C-5.66 11.68 -6.32 10.36 -7 9 C-3.25 5.125 -3.25 5.125 -1 4 C-0.34786708 1.97536745 -0.34786708 1.97536745 0 0 Z " fill="#4A8DCC" transform="translate(223,193)"/>
<path d="M0 0 C1.04528847 3.23408044 1.06464549 3.84300381 -0.3125 7.1875 C-2 10 -2 10 -4 11 C-4.33 11.99 -4.66 12.98 -5 14 C-5.66 14 -6.32 14 -7 14 C-5.23570801 9.02790438 -2.6060834 4.56561939 0 0 Z " fill="#2F5787" transform="translate(211,212)"/>
<path d="M0 0 C2.9375 0.75 2.9375 0.75 6 2 C6.875 4.125 6.875 4.125 7 6 C7.639375 6.12375 8.27875 6.2475 8.9375 6.375 C9.618125 6.58125 10.29875 6.7875 11 7 C11.33 7.66 11.66 8.32 12 9 C6.81298543 8.68563548 3.4052641 5.69966733 0 2 C0 1.34 0 0.68 0 0 Z " fill="#325980" transform="translate(309,323)"/>
<path d="M0 0 C2.35953094 2.35953094 2.49141413 3.77895617 3 7 C2.38125 7.12375 1.7625 7.2475 1.125 7.375 C-1.19120832 7.87197356 -1.19120832 7.87197356 -3 10 C-2.25 3.375 -2.25 3.375 0 0 Z " fill="#59A4EE" transform="translate(197,240)"/>
<path d="M0 0 C3.3 0.33 6.6 0.66 10 1 C10 1.66 10 2.32 10 3 C11.65 3 13.3 3 15 3 C15 3.33 15 3.66 15 4 C10.18924394 4.19243024 6.45976049 3.86687649 2 2 C1.34 1.34 0.68 0.68 0 0 Z " fill="#315F8C" transform="translate(168,331)"/>
<path d="M0 0 C1.32 0 2.64 0 4 0 C5.32 2.97 6.64 5.94 8 9 C3.97777612 6.98888806 2.51685747 5.59551067 0 2 C0 1.34 0 0.68 0 0 Z " fill="#376190" transform="translate(160,322)"/>
<path d="M0 0 C0.33 0 0.66 0 1 0 C1.33776684 1.7491497 1.67003671 3.49936145 2 5.25 C2.185625 6.22453125 2.37125 7.1990625 2.5625 8.203125 C3 11 3 11 3 15 C3.66 15.33 4.32 15.66 5 16 C4.01 16 3.02 16 2 16 C-0.42130331 12.36804504 -0.21022785 10.61650652 -0.125 6.3125 C-0.09792969 4.54326172 -0.09792969 4.54326172 -0.0703125 2.73828125 C-0.04710937 1.83464844 -0.02390625 0.93101562 0 0 Z " fill="#487DB6" transform="translate(242,282)"/>
<path d="M0 0 C2.94721162 2.74395564 5.19168608 5.38337216 7 9 C6.67 9.66 6.34 10.32 6 11 C1.9957657 7.50912907 0.37328935 5.35048061 0 0 Z " fill="#3B6D98" transform="translate(336,286)"/>
<path d="M0 0 C0.66 0 1.32 0 2 0 C2 0.66 2 1.32 2 2 C2.66 2 3.32 2 4 2 C4 2.99 4 3.98 4 5 C4.66 5 5.32 5 6 5 C8.125 9.625 8.125 9.625 7 13 C5.83072457 11.02237345 4.66464427 9.04285742 3.5 7.0625 C2.8503125 5.96035156 2.200625 4.85820312 1.53125 3.72265625 C0 1 0 1 0 0 Z " fill="#315A89" transform="translate(262,245)"/>
<path d="M0 0 C2.63978826 3.18595135 5.10498388 6.30970546 7 10 C6.67 10.66 6.34 11.32 6 12 C5.34 11.67 4.68 11.34 4 11 C4 10.01 4 9.02 4 8 C3.01 8 2.02 8 1 8 C0.67 5.36 0.34 2.72 0 0 Z " fill="#2F5B87" transform="translate(304,233)"/>
<path d="M0 0 C0.33 0 0.66 0 1 0 C2.125 5.625 2.125 5.625 1 9 C0.01 9.33 -0.98 9.66 -2 10 C-2.25 3.375 -2.25 3.375 0 0 Z " fill="#4683BA" transform="translate(163,299)"/>
<path d="M0 0 C0.66 0 1.32 0 2 0 C1.6875 3.375 1.6875 3.375 1 7 C0.01 7.66 -0.98 8.32 -2 9 C-2.33 7.02 -2.66 5.04 -3 3 C-2.01 2.34 -1.02 1.68 0 1 C0 0.67 0 0.34 0 0 Z " fill="#56A5E9" transform="translate(344,317)"/>
<path d="M0 0 C3.48331435 3.01887244 4.79157144 5.56909529 6 10 C3 9 3 9 1.3125 6.6875 C0 4 0 4 0 0 Z " fill="#36638B" transform="translate(330,276)"/>
<path d="M0 0 C0.99 0.33 1.98 0.66 3 1 C0.525 5.455 0.525 5.455 -2 10 C-3.60920937 6.78158126 -2.0749168 4.28446801 -1 1 C-0.67 0.67 -0.34 0.34 0 0 Z " fill="#2C5E8F" transform="translate(233,256)"/>
<path d="M0 0 C0.99 0.66 1.98 1.32 3 2 C1.79618552 4.49361571 0.54571278 6.68143083 -1 9 C-2.1875 6.75 -2.1875 6.75 -3 4 C-1.625 1.6875 -1.625 1.6875 0 0 Z " fill="#53A1E9" transform="translate(301,231)"/>
<path d="M0 0 C1.32 0 2.64 0 4 0 C4.33 2.31 4.66 4.62 5 7 C3.68 6.01 2.36 5.02 1 4 C0.34 4.66 -0.32 5.32 -1 6 C-1.042721 4.33388095 -1.04063832 2.66617115 -1 1 C-0.67 0.67 -0.34 0.34 0 0 Z " fill="#204B76" transform="translate(250,226)"/>
<path d="M0 0 C2.74277578 3.19990508 4.6302836 6.00499382 6 10 C3.525 9.01 3.525 9.01 1 8 C0.67 5.36 0.34 2.72 0 0 Z " fill="#4173A3" transform="translate(276,188)"/>
<path d="M0 0 C2.79872437 2.52788007 4.45773019 4.20411134 5 8 C4.01 8 3.02 8 2 8 C0.23537317 4.91190305 0 3.76687864 0 0 Z " fill="#34618C" transform="translate(325,268)"/>
<path d="M0 0 C2.61500768 2.36595933 4.38999603 4.86049226 6 8 C5.67 8.66 5.34 9.32 5 10 C1.95623822 7.97082548 1.25189126 7.27417715 0 4 C0 2.68 0 1.36 0 0 Z " fill="#386B95" transform="translate(319,258)"/>
<path d="M0 0 C0.33 0 0.66 0 1 0 C0.67 3.3 0.34 6.6 0 10 C-0.66 10 -1.32 10 -2 10 C-3.05236973 6.65155086 -3.20005388 5.40920111 -1.625 2.1875 C-1.08875 1.465625 -0.5525 0.74375 0 0 Z " fill="#246299" transform="translate(230,177)"/>
<path d="M0 0 C2 1 2 1 2.6328125 2.84765625 C2.79523438 3.57855469 2.95765625 4.30945313 3.125 5.0625 C3.29257812 5.79597656 3.46015625 6.52945313 3.6328125 7.28515625 C3.75398438 7.85105469 3.87515625 8.41695313 4 9 C3.01 9.495 3.01 9.495 2 10 C1.87882812 9.43410156 1.75765625 8.86820312 1.6328125 8.28515625 C1.38144531 7.18494141 1.38144531 7.18494141 1.125 6.0625 C0.96257812 5.33160156 0.80015625 4.60070312 0.6328125 3.84765625 C0.17038477 1.79299706 0.17038477 1.79299706 -2 1 C-1.34 0.67 -0.68 0.34 0 0 Z " fill="#54A6EA" transform="translate(268,248)"/>
<path d="M0 0 C3.08089673 2.77280706 4.68775452 5.06326356 6 9 C3.5625 7.875 3.5625 7.875 1 6 C0.1875 2.8125 0.1875 2.8125 0 0 Z " fill="#386695" transform="translate(267,174)"/>
<path d="M0 0 C1.98 0.495 1.98 0.495 4 1 C4 3.31 4 5.62 4 8 C3.01 8.495 3.01 8.495 2 9 C2.33 6.69 2.66 4.38 3 2 C1.68 2.33 0.36 2.66 -1 3 C-0.67 2.01 -0.34 1.02 0 0 Z " fill="#3174B1" transform="translate(343,315)"/>
<path d="M0 0 C1.485 0.99 1.485 0.99 3 2 C3 3.32 3 4.64 3 6 C2.34 6 1.68 6 1 6 C0.67 6.66 0.34 7.32 0 8 C-1.125 2.25 -1.125 2.25 0 0 Z " fill="#55A5E9" transform="translate(322,266)"/>
<path d="M0 0 C3.39914975 1.13304992 4.05254451 2.12518475 6 5 C5.67 5.66 5.34 6.32 5 7 C2.5 5.75 2.5 5.75 0 4 C0 2.68 0 1.36 0 0 Z " fill="#3D72A5" transform="translate(298,226)"/>
<path d="M0 0 C0.33 0 0.66 0 1 0 C1 2.31 1 4.62 1 7 C-0.32 7.33 -1.64 7.66 -3 8 C-1.125 2.25 -1.125 2.25 0 0 Z " fill="#2B5F96" transform="translate(226,184)"/>
</svg>
