<?xml version="1.0" encoding="UTF-8"?>
<svg version="1.1" xmlns="http://www.w3.org/2000/svg" width="1080" height="1080">
<path d="M0 0 C356.4 0 712.8 0 1080 0 C1080 356.4 1080 712.8 1080 1080 C723.6 1080 367.2 1080 0 1080 C0 723.6 0 367.2 0 0 Z " fill="#D8D8D8" transform="translate(0,0)"/>
<path d="M0 0 C356.4 0 712.8 0 1080 0 C1080 356.4 1080 712.8 1080 1080 C723.6 1080 367.2 1080 0 1080 C0 723.6 0 367.2 0 0 Z M478.16610718 52.63894653 C475.21087057 52.97595295 472.2543755 53.28518221 469.29492188 53.58251953 C416.86271427 58.9482927 363.71197802 78.54654817 317 102 C316.07461426 102.4640625 315.14922852 102.928125 314.19580078 103.40625 C281.9116023 119.70754154 250.86362683 139.77304541 223.60205078 163.60839844 C221.86043557 165.12123092 220.10201209 166.61273076 218.33984375 168.1015625 C212.88974009 172.71428601 207.51138859 177.30006717 202.55078125 182.4453125 C200.87603042 184.12428184 199.11807274 185.65037291 197.3125 187.1875 C189.57516926 193.87110866 182.32644269 201.23695592 175.69921875 209.01953125 C173.71969568 211.32669952 171.6735788 213.56646782 169.625 215.8125 C164.894053 221.06201623 160.4336028 226.49891659 156 232 C155.07496477 233.12170939 154.14914892 234.24277536 153.22265625 235.36328125 C145.75330905 244.46239454 139.03934578 253.96760205 132.50341797 263.75439453 C131.13995884 265.79094813 129.76295268 267.81725226 128.37890625 269.83984375 C115.73009878 288.40478652 105.06247242 307.93032561 95 328 C94.59797363 328.80002441 94.19594727 329.60004883 93.78173828 330.42431641 C62.01270634 394.21137686 46.28058668 466.27088481 46.60888672 537.3371582 C46.62593039 541.0574463 46.6158183 544.77708771 46.5985651 548.49735355 C46.22517204 643.68710521 76.2916812 736.73474451 142.64599609 836.26513672 C143.99278152 837.99075108 145.3211589 839.72904043 146.64453125 841.47265625 C151.94194436 848.44245916 157.37887852 855.28798195 163 862 C163.44032562 862.52608353 163.88065125 863.05216705 164.33432007 863.5941925 C172.52250189 873.32511032 181.18175386 882.46894725 190.21313477 891.41894531 C192.33353672 893.52085323 194.445589 895.63089252 196.55664062 897.7421875 C197.92921357 899.10985079 199.30224391 900.47705524 200.67578125 901.84375 C201.2936702 902.46052612 201.91155914 903.07730225 202.548172 903.71276855 C206.87741936 907.9958364 211.38213213 912.03130061 216 916 C216.51645081 916.4493692 217.03290161 916.8987384 217.56500244 917.36172485 C226.72847012 925.32673993 236.27224331 932.74035306 246 940 C247.10118164 940.82467773 247.10118164 940.82467773 248.22460938 941.66601562 C258.48709093 949.32015393 269.0060845 956.27458636 280.01318359 962.80810547 C282.74792521 964.4486816 285.43223685 966.1666112 288.125 967.875 C315.83947991 984.86352639 345.42426887 998.10037875 376 1009 C377.05171387 1009.37495605 378.10342773 1009.74991211 379.18701172 1010.13623047 C406.46140238 1019.75301083 434.50189719 1026.8473549 463.06295776 1031.36126709 C465.00525888 1031.66855592 466.94616494 1031.98462562 468.88696289 1032.30126953 C491.4481431 1035.71355021 514.29453058 1036.33833984 537.0769043 1036.26074219 C540.82942657 1036.24995133 544.58147568 1036.26076422 548.33398438 1036.2734375 C563.65720322 1036.28226251 578.75805506 1035.558448 594 1034 C595.25111572 1033.87963379 596.50223145 1033.75926758 597.79125977 1033.63525391 C627.78640747 1030.63267528 657.28702804 1024.09484858 686 1015 C686.88929199 1014.72349609 687.77858398 1014.44699219 688.69482422 1014.16210938 C724.15941571 1003.08450386 757.99896638 987.84984191 790 969 C790.78922852 968.53770996 791.57845703 968.07541992 792.39160156 967.59912109 C809.9949542 957.23909039 827.08138576 945.81037715 843 933 C843.91394531 932.26652344 844.82789063 931.53304687 845.76953125 930.77734375 C848.53012266 928.53806574 851.26897001 926.27522526 854 924 C854.51030762 923.57605957 855.02061523 923.15211914 855.54638672 922.71533203 C866.40967173 913.6752557 876.88054253 904.32404515 886.74609375 894.19140625 C889 892 889 892 891.6015625 889.921875 C893.67019849 888.26427092 895.25547296 886.71431929 896.9375 884.6875 C899.83506381 881.28491418 902.85138479 878.02892903 905.93041992 874.79223633 C912.6170631 867.74672326 918.74798158 860.47080076 924.63916016 852.75488281 C926.01773056 850.97713541 927.42902682 849.23170376 928.85546875 847.4921875 C946.72738273 825.68209191 961.68317965 801.81679559 975 777 C975.46760742 776.13713379 975.93521484 775.27426758 976.41699219 774.38525391 C994.33170943 741.24243654 1008.65883714 705.7217736 1018 669.1875 C1018.1698642 668.52690582 1018.33972839 667.86631165 1018.51473999 667.18569946 C1021.68704135 654.80278647 1024.2941425 642.35105842 1026.50927734 629.75976562 C1026.93772843 627.35020787 1027.39321668 624.94856803 1027.86328125 622.546875 C1032.73939882 596.83706356 1033.5611311 570.45583942 1033.44622421 544.35896683 C1033.43732391 542.14367122 1033.43386275 539.92841561 1033.43130493 537.71310425 C1033.3941626 516.74448889 1032.72664554 496.07960383 1029.50830078 475.32226562 C1029.0374541 472.24480088 1028.64030533 469.16990251 1028.27734375 466.078125 C1026.74623759 453.41159728 1023.81622618 441.16947765 1020.69482422 428.81054688 C1020.09511145 426.38472348 1019.53364514 423.95746902 1019.00390625 421.515625 C1016.22702016 408.73704768 1012.17755103 396.3819873 1008 384 C1007.69078613 383.08089844 1007.38157227 382.16179687 1007.06298828 381.21484375 C987.92167501 324.98141287 957.90617988 270.29687403 918.48095703 225.69140625 C916.9345411 223.92523916 915.41568197 222.13831967 913.90234375 220.34375 C908.89062037 214.40617875 903.8602288 208.62912049 898.23046875 203.2578125 C896.30419731 201.30792653 894.53524689 199.31437747 892.75390625 197.234375 C889.00266706 192.91276317 884.94546159 189.01074552 880.75 185.125 C879.62694458 184.07856323 879.62694458 184.07856323 878.48120117 183.01098633 C876.99433794 181.62759328 875.50570705 180.24609716 874.01513672 178.86669922 C872.31745737 177.29407306 870.62761613 175.71379386 868.94140625 174.12890625 C862.51311206 168.15909367 855.73859634 162.74743757 848.79833984 157.39550781 C847.01760202 156.01365913 845.2509424 154.61575038 843.48828125 153.2109375 C800.30799807 118.8250709 750.96116859 93.23043136 699 75 C698.03465332 74.65453125 697.06930664 74.3090625 696.07470703 73.953125 C674.92719174 66.38853826 653.13609458 61.47496549 631.125 57.1875 C630.37145233 57.04038574 629.61790466 56.89327148 628.84152222 56.74169922 C601.27643511 51.39380628 574.02191063 49.63798054 545.98510742 49.68432617 C542.96574952 49.68894256 539.94679599 49.68207055 536.92749023 49.66381836 C517.16415298 49.54547623 497.80953591 50.38177299 478.16610718 52.63894653 Z " fill="#FEFEFE" transform="translate(0,0)"/>
<path d="M0 0 C2.36611492 0.01865628 4.73218546 0.03063805 7.09835052 0.04096603 C50.26172584 0.2432601 93.10325131 3.20711549 134.50734711 16.45579147 C135.43466644 16.75066452 136.36198578 17.04553757 137.3174057 17.34934616 C154.48651099 22.88961923 170.72407371 29.68730625 186.50734711 38.45579147 C186.50734711 75.08579147 186.50734711 111.71579147 186.50734711 149.45579147 C145.58734711 149.45579147 104.66734711 149.45579147 62.50734711 149.45579147 C61.84734711 145.49579147 61.18734711 141.53579147 60.50734711 137.45579147 C56.8596488 128.98025718 53.07737832 125.93498545 44.83937836 122.26829147 C32.69976993 117.74538432 14.76508764 116.91271281 2.50734711 121.45579147 C-1.93677617 123.95745027 -5.70784206 126.5324727 -7.49265289 131.45579147 C-8.31664535 139.32204509 -8.56939878 146.14416145 -3.49265289 152.45579147 C6.65054439 161.29036543 20.12866644 165.35014983 32.65624237 169.59440231 C35.45503311 170.54292509 38.24927235 171.50394083 41.0427475 172.4679985 C46.8609057 174.4738341 52.68388838 176.46540806 58.50734711 178.45579147 C103.20091921 193.74092525 103.20091921 193.74092525 118.50734711 201.45579147 C119.35700043 201.87393112 120.20665375 202.29207077 121.08205414 202.72288132 C155.16986437 219.55492741 186.05716943 244.27695843 199.04470062 281.26072311 C204.78441959 298.44010874 207.87754571 315.65731828 207.76808929 333.7870903 C207.75737134 335.88854035 207.76805908 337.98913268 207.78078461 340.0905571 C207.79020107 349.3785761 206.9528403 358.26698149 205.50734711 367.45579147 C205.39761566 368.22624802 205.28788422 368.99670456 205.17482758 369.79050827 C201.72537067 393.69913223 192.10708212 416.9344566 176.50734711 435.45579147 C175.71586273 436.39809616 174.92437836 437.34040085 174.10890961 438.31126022 C168.45431025 444.77748188 162.34573863 450.2700937 155.50734711 455.45579147 C154.73004242 456.04876022 153.95273773 456.64172897 153.15187836 457.25266647 C140.05905922 466.81459134 125.57145533 473.62561778 110.50734711 479.45579147 C109.21425629 479.95731735 109.21425629 479.95731735 107.89504242 480.46897507 C101.3191622 482.94461437 94.71754436 484.84094865 87.88234711 486.45579147 C86.81564789 486.70997849 85.74894867 486.9641655 84.64992523 487.22605515 C38.7140396 497.8599842 -11.7240349 498.75399354 -58.49265289 493.45579147 C-59.22097321 493.37331161 -59.94929352 493.29083176 -60.69968414 493.20585251 C-97.5168528 489.00393418 -97.5168528 489.00393418 -115.16550446 484.97825241 C-117.77674157 484.3920116 -120.39506574 483.84811464 -123.01609039 483.30735397 C-146.5346113 478.41284698 -169.49625034 472.23197038 -191.49265289 462.45579147 C-191.49265289 422.19579147 -191.49265289 381.93579147 -191.49265289 340.45579147 C-146.94265289 340.45579147 -102.39265289 340.45579147 -56.49265289 340.45579147 C-55.50265289 347.38579147 -55.50265289 347.38579147 -54.49265289 354.45579147 C-53.24602213 357.96194051 -52.08074878 361.14312271 -50.49265289 364.45579147 C-50.05952789 365.51926804 -50.05952789 365.51926804 -49.61765289 366.60422897 C-48.2010124 368.93578311 -46.99114537 369.42807519 -44.49265289 370.45579147 C-43.48138336 370.96819382 -43.48138336 370.96819382 -42.44968414 371.49094772 C-41.74198883 371.82997116 -41.03429352 372.1689946 -40.30515289 372.51829147 C-39.61034821 372.85989304 -38.91554352 373.2014946 -38.19968414 373.55344772 C-30.68649204 376.05784509 -22.38825636 375.66635483 -14.55515289 375.70579147 C-13.53485992 375.72641647 -12.51456696 375.74704147 -11.46335602 375.76829147 C-2.73913078 375.81283123 5.99239813 374.59942719 13.03469086 369.02219772 C17.16077367 364.63344651 18.72491482 359.31525882 19.00734711 353.39329147 C18.66801048 346.54293333 16.12336421 341.72491886 11.25734711 336.95579147 C2.73074584 330.04657497 -7.92468044 325.88807599 -18.15671539 322.19016647 C-18.96970596 321.89342026 -19.78269653 321.59667404 -20.62032318 321.29093552 C-27.74238958 318.70232246 -34.8924211 316.19382768 -42.04479218 313.69045639 C-84.49866409 298.82814175 -126.26239758 282.79353643 -159.49265289 251.45579147 C-160.25191071 250.76098679 -161.01116852 250.0661821 -161.79343414 249.35032272 C-181.57821763 230.59065755 -191.67805785 203.91618669 -195.49265289 177.45579147 C-195.69632477 176.44387741 -195.89999664 175.43196335 -196.10984039 174.38938522 C-203.14988231 138.17656689 -195.53109191 95.46062686 -175.49265289 64.45579147 C-173.00273895 60.94510821 -170.33558123 57.68438838 -167.49265289 54.45579147 C-166.80687164 53.63852585 -166.12109039 52.82126022 -165.41452789 51.97922897 C-156.29567032 41.38429734 -145.65322845 33.2745478 -133.49265289 26.45579147 C-132.62809479 25.96514206 -132.62809479 25.96514206 -131.74607086 25.46458054 C-92.30347227 3.39050816 -44.33425798 -0.37338203 0 0 Z " fill="#000000" transform="translate(700.4926528930664,303.5442085266113)"/>
<path d="M0 0 C74.25 0 148.5 0 225 0 C226.98 7.92 226.98 7.92 229 16 C229.78787395 18.79871643 230.59454622 21.5923775 231.4375 24.375 C231.85618353 25.78494419 232.27412492 27.19510893 232.69140625 28.60546875 C233.36523056 30.87327502 234.04226047 33.13996825 234.72607422 35.40478516 C235.45452587 37.82894514 236.16604411 40.25757672 236.875 42.6875 C237.10243896 43.42983887 237.32987793 44.17217773 237.56420898 44.93701172 C239.83945424 52.83764519 237.76151897 57.9611918 234.1875 65.0625 C230.70477532 72.23000292 228.07483678 79.29212219 226 87 C225.66355469 88.10988281 225.32710938 89.21976562 224.98046875 90.36328125 C212.26702023 133.93184079 216.40807785 187.55500745 238.0625 227.5859375 C249.95931339 248.549274 265.55158586 265.14052423 285 279.1875 C285.8657666 279.81603882 285.8657666 279.81603882 286.74902344 280.45727539 C289.61209865 282.48615387 292.43585383 284.27664056 295.59765625 285.8046875 C300.88980399 288.48954261 304.70380802 290.55194846 306.921875 296.20703125 C308.45163065 300.93278567 310 306.00737302 310 311 C281.62 311 253.24 311 224 311 C224.33 363.8 224.66 416.6 225 471 C229.29 472.98 233.58 474.96 238 477 C238 477.33 238 477.66 238 478 C196.42 478 154.84 478 112 478 C112 444.67 112 411.34 112 377 C123.88 377 135.76 377 148 377 C147.3503125 373.70257812 146.700625 370.40515625 146.03125 367.0078125 C145.40530931 363.82414465 144.78001556 360.64035038 144.15478516 357.45654297 C143.71893928 355.23896177 143.28241792 353.02151324 142.84521484 350.80419922 C142.21796091 347.62241453 141.59311474 344.44016522 140.96875 341.2578125 C140.77188599 340.26194122 140.57502197 339.26606995 140.37219238 338.24002075 C140.19200562 337.31921722 140.01181885 336.3984137 139.82617188 335.44970703 C139.66628784 334.6369632 139.50640381 333.82421936 139.3416748 332.98684692 C139 331 139 331 139 329 C111.28 329 83.56 329 55 329 C54.34 332.63 53.68 336.26 53 340 C52.42776775 343.05667126 51.85315522 346.11272674 51.2734375 349.16796875 C51.04462387 350.37650261 51.04462387 350.37650261 50.81118774 351.60945129 C50.3328323 354.13553851 49.85392733 356.66152116 49.375 359.1875 C49.0468383 360.91991492 48.71871301 362.65233674 48.390625 364.38476562 C47.59423687 368.58993627 46.79710253 372.79496447 46 377 C57.88 377 69.76 377 82 377 C82 410.33 82 443.66 82 478 C12.7 478 -56.6 478 -128 478 C-128 444.67 -128 411.34 -128 377 C-119.75 377 -111.5 377 -103 377 C-102.34 373.7 -101.68 370.4 -101 367 C-100.27322774 363.86645293 -99.53117438 360.74462497 -98.75 357.625 C-98.42902344 356.33916016 -98.42902344 356.33916016 -98.1015625 355.02734375 C-96.34815024 348.1245426 -94.32927522 341.32163088 -92.23583984 334.515625 C-90.17572454 327.75367741 -88.42900763 320.93928897 -86.75170898 314.07373047 C-85.33193771 308.27476119 -83.76611891 302.53659708 -82.09375 296.8046875 C-80.70267194 291.9657231 -79.38191731 287.1089121 -78.0625 282.25 C-74.60548088 269.5426529 -71.14239199 256.84357171 -67.41162109 244.21337891 C-64.67733918 234.95021174 -62.11621735 225.68437274 -59.84375 216.29736328 C-58.20700521 209.62067478 -56.25201472 203.06775731 -54.23022461 196.49902344 C-52.46493138 190.70564689 -50.92542007 184.88560546 -49.5 179 C-47.66228837 171.41202941 -45.526975 163.96073095 -43.23046875 156.5 C-41.46519104 150.70626802 -39.92549968 144.88593415 -38.5 139 C-36.66228837 131.41202941 -34.526975 123.96073095 -32.23046875 116.5 C-30.46519104 110.70626802 -28.92549968 104.88593415 -27.5 99 C-25.66228837 91.41202941 -23.526975 83.96073095 -21.23046875 76.5 C-19.46519104 70.70626802 -17.92549968 64.88593415 -16.5 59 C-14.66427157 51.42021811 -12.53343971 43.97619587 -10.23706055 36.52416992 C-8.156519 29.70114838 -6.38333493 22.8245265 -4.73632812 15.88476562 C-3.42596591 10.42872785 -1.79005828 5.37017483 0 0 Z " fill="#000000" transform="translate(262,310)"/>
<path d="M0 0 C43.08130324 -0.87857864 87.50215792 1.57668518 129.40917969 12.078125 C130.45944336 12.33996582 131.50970703 12.60180664 132.59179688 12.87158203 C200.2926598 29.96160512 200.2926598 29.96160512 220.40917969 50.078125 C220.50572696 51.96374018 220.5310521 53.85301955 220.5294342 55.74110413 C220.5314962 57.58586586 220.5314962 57.58586586 220.53359985 59.46789551 C220.53006025 60.84326196 220.52642543 62.21862817 220.52270508 63.59399414 C220.52242321 65.03254698 220.52258093 66.47109996 220.52314758 67.90965271 C220.52343558 71.82683643 220.51753852 75.74398979 220.51057363 79.66116643 C220.50434043 83.75046337 220.50373632 87.83976093 220.50254822 91.92906189 C220.4994348 99.67804898 220.49122127 107.42702203 220.48119873 115.17600292 C220.46795276 125.64344893 220.46253777 136.11089875 220.45669651 146.57835102 C220.44728139 163.0782862 220.42736255 179.57819176 220.40917969 196.078125 C172.39417969 196.573125 172.39417969 196.573125 123.40917969 197.078125 C130.00917969 200.048125 136.60917969 203.018125 143.40917969 206.078125 C146.88339754 207.82464915 150.27890806 209.55433277 153.65917969 211.453125 C154.47507568 211.9073584 155.29097168 212.3615918 156.1315918 212.82958984 C188.28177289 231.03748954 212.60204073 255.70084548 228.40917969 289.078125 C228.72757813 289.74859863 229.04597656 290.41907227 229.37402344 291.10986328 C237.42605903 308.65643623 241.43268275 330.74688595 241.64746094 349.96875 C241.65734543 350.70262436 241.66722992 351.43649872 241.67741394 352.19261169 C242.20871349 402.06495629 230.9520143 447.44429582 195.66381836 484.10888672 C170.92335249 509.26076708 138.95605384 523.01636715 105.40917969 532.078125 C104.20430908 532.41013916 102.99943848 532.74215332 101.75805664 533.08422852 C92.22045746 535.64189259 82.69336621 537.23745999 72.90063477 538.46118164 C70.47538216 538.76516093 68.0527165 539.08556631 65.62988281 539.40820312 C47.19482609 541.81636779 28.96535218 542.24100763 10.38500977 542.20849609 C6.69055179 542.20307936 2.99621238 542.20850134 -0.69824219 542.21484375 C-3.06217475 542.21418385 -5.42610723 542.21290452 -7.79003906 542.2109375 C-8.88692551 542.21296173 -9.98381195 542.21498596 -11.11393738 542.21707153 C-16.07182059 542.2018365 -20.70887579 542.02332283 -25.59082031 541.078125 C-27.62539148 540.93897595 -29.66239999 540.8328527 -31.70019531 540.75390625 C-170.31178603 534.35715928 -170.31178603 534.35715928 -203.59082031 501.078125 C-203.68763853 499.01518222 -203.71268954 496.94886458 -203.71107483 494.88365173 C-203.71192925 494.22942893 -203.71278368 493.57520613 -203.713664 492.90115839 C-203.71532059 490.69311157 -203.70979453 488.48513952 -203.7043457 486.27709961 C-203.70406384 484.70061749 -203.70422154 483.12413524 -203.70478821 481.5476532 C-203.70507623 477.25444951 -203.69917872 472.96127351 -203.69221425 468.66807628 C-203.68598153 464.18639817 -203.68537698 459.70471949 -203.68418884 455.22303772 C-203.68107529 446.73031591 -203.67286157 438.23760691 -203.66283935 429.74489075 C-203.64959395 418.27293325 -203.64417851 406.80097227 -203.63833714 395.32900906 C-203.62892169 377.24537144 -203.60900294 359.16176085 -203.59082031 341.078125 C-175.21082031 341.078125 -146.83082031 341.078125 -117.59082031 341.078125 C-119.63854626 334.90595698 -119.63854626 334.90595698 -121.77832031 328.765625 C-122.59082031 326.078125 -122.59082031 326.078125 -122.59082031 322.078125 C-123.56148437 321.75521484 -123.56148437 321.75521484 -124.55175781 321.42578125 C-128.74976485 319.56419715 -132.41310018 317.07532332 -136.21582031 314.515625 C-137.01979248 313.97550781 -137.82376465 313.43539063 -138.65209961 312.87890625 C-144.93716863 308.61004135 -150.89220628 304.11077674 -156.59082031 299.078125 C-157.36135742 298.40595947 -157.36135742 298.40595947 -158.14746094 297.72021484 C-179.5990432 278.92145281 -193.66831476 256.1398136 -201.99804688 228.97192383 C-202.51528055 227.31946024 -203.08396625 225.68327791 -203.66113281 224.05078125 C-204.78448366 220.45889053 -205.46393314 216.84339267 -206.09082031 213.140625 C-206.208125 212.48255859 -206.32542969 211.82449219 -206.44628906 211.14648438 C-206.85409385 208.79393309 -207.22610629 206.43775996 -207.59082031 204.078125 C-207.76436035 202.98193848 -207.93790039 201.88575195 -208.11669922 200.75634766 C-209.51845216 191.23574222 -209.99098909 181.93833754 -209.96582031 172.328125 C-209.96560883 171.57476868 -209.96539734 170.82141235 -209.96517944 170.04522705 C-209.90828721 149.54622567 -207.36794482 129.48914829 -200.59082031 110.078125 C-200.23503906 109.005625 -199.87925781 107.933125 -199.51269531 106.828125 C-192.62092055 87.41467497 -181.67488237 70.97795896 -167.59082031 56.078125 C-166.84445312 55.26730469 -166.09808594 54.45648438 -165.32910156 53.62109375 C-126.79976551 13.18121211 -62.4370663 1.75588434 -8.84863281 0.171875 C-4.42425298 0.08951314 -4.42425298 0.08951314 0 0 Z M-71.90332031 31.390625 C-73.17054932 31.68912354 -74.43777832 31.98762207 -75.7434082 32.29516602 C-110.88448931 40.8195651 -145.5345591 57.9739295 -165.32910156 89.54101562 C-172.43723209 101.26563662 -177.67338824 112.9094678 -181.09570312 126.20019531 C-181.52106975 127.81356814 -182.00006893 129.41263136 -182.48925781 131.0078125 C-193.43799552 168.40696604 -187.57132531 215.18886384 -169.12768555 249.13330078 C-156.05706565 272.0880484 -135.29444572 289.14181202 -112.59082031 302.078125 C-111.43549805 302.74279785 -111.43549805 302.74279785 -110.25683594 303.42089844 C-84.14328203 318.35290386 -56.37748615 328.62406055 -28.01269531 338.3828125 C-26.36828055 338.95128217 -24.723912 339.51988556 -23.07958984 340.08862305 C-19.93390621 341.17645411 -16.78358439 342.24889011 -13.62939453 343.31176758 C1.83183208 348.59492761 19.41261612 354.62909867 28.40917969 369.078125 C30.5007988 375.35298234 30.11082368 381.33238382 27.47167969 387.390625 C23.9556341 393.73544381 18.92175062 395.80408905 12.35058594 398.1875 C7.22892692 399.59107125 1.9929019 399.37597827 -3.27832031 399.328125 C-4.34888672 399.32063232 -5.41945313 399.31313965 -6.52246094 399.30541992 C-25.93099126 399.04078502 -25.93099126 399.04078502 -34.06738281 393.1015625 C-35.56163226 391.89224375 -35.56163226 391.89224375 -37.59082031 392.078125 C-39.41212311 388.63882762 -40.7989839 385.09972631 -42.15332031 381.453125 C-42.58773437 380.30585937 -43.02214844 379.15859375 -43.46972656 377.9765625 C-44.59082031 374.078125 -44.59082031 374.078125 -45.59082031 364.078125 C-90.14082031 364.078125 -134.69082031 364.078125 -180.59082031 364.078125 C-180.59082031 404.338125 -180.59082031 444.598125 -180.59082031 486.078125 C-160.48447652 495.21737218 -139.90135391 500.79566145 -118.37792969 505.46484375 C-115.60500624 506.0750035 -112.8400348 506.71365877 -110.07519531 507.359375 C-90.20430948 511.94041365 -70.09786182 514.55286723 -49.84082031 516.765625 C-48.20173706 516.94472412 -48.20173706 516.94472412 -46.52954102 517.12744141 C-30.39378091 518.81005066 -14.42517436 519.24856962 1.78417969 519.203125 C2.79875244 519.20124176 3.8133252 519.19935852 4.85864258 519.19741821 C42.05457251 519.11647788 80.02287701 517.88292807 115.40917969 505.078125 C116.21129883 504.79598145 117.01341797 504.51383789 117.83984375 504.22314453 C154.91472555 491.11298884 186.71986658 468.98306921 204.15917969 432.828125 C215.00498288 409.51271192 218.63785588 385.57311353 218.65917969 360.015625 C218.65985443 359.28446472 218.66052917 358.55330444 218.66122437 357.79998779 C218.64486984 346.62052239 218.04953595 335.96927258 215.40917969 325.078125 C215.23757324 324.31435547 215.0659668 323.55058594 214.88916016 322.76367188 C210.13363877 301.70168439 201.53118853 283.57176892 187.40917969 267.078125 C186.39597656 265.86382813 186.39597656 265.86382813 185.36230469 264.625 C171.96120163 249.07189499 155.24193633 238.42330196 137.22167969 228.953125 C136.16062012 228.39133545 135.09956055 227.8295459 134.00634766 227.25073242 C117.54031258 218.77640018 100.04356831 212.76196985 82.55587769 206.78024292 C79.33257181 205.67690204 76.11188708 204.56619897 72.8918457 203.45336914 C65.15876484 200.78107128 57.42407468 198.11347381 49.68603516 195.45556641 C10.90468693 182.1166362 10.90468693 182.1166362 4.40917969 172.078125 C2.25025573 165.60135314 2.24792751 157.66861063 5.03417969 151.453125 C13.54992908 142.9373756 23.31803906 142.86434859 34.78417969 142.703125 C45.86407775 142.71190618 57.89335645 144.20805139 66.40917969 152.078125 C71.60337573 158.55089238 72.00917886 164.67812005 73.40917969 173.078125 C114.32917969 173.078125 155.24917969 173.078125 197.40917969 173.078125 C197.40917969 136.448125 197.40917969 99.818125 197.40917969 62.078125 C183.40433712 54.56479302 183.40433712 54.56479302 168.97167969 48.390625 C167.99924316 48.0203418 167.02680664 47.65005859 166.02490234 47.26855469 C163.15919225 46.18727873 160.28672908 45.12743959 157.40917969 44.078125 C156.1999585 43.63509033 156.1999585 43.63509033 154.96630859 43.18310547 C143.00314507 38.85491717 130.85472608 35.68434182 118.40917969 33.078125 C116.63994141 32.7063916 116.63994141 32.7063916 114.83496094 32.32714844 C81.79646083 25.53253335 49.24392028 23.79154629 15.59544754 23.65236664 C13.26839345 23.64085607 10.94147063 23.62285985 8.61447144 23.60333252 C-18.46492657 23.3990682 -45.48749811 24.96331165 -71.90332031 31.390625 Z " fill="#FDFDFD" transform="translate(689.5908203125,279.921875)"/>
<path d="M0 0 C1.98 0 3.96 0 6 0 C8.38889378 9.14881753 10.37238595 18.36083321 12.25 27.625 C12.55506101 29.11984833 12.8604058 30.61463877 13.16601562 32.109375 C13.79861673 35.20453133 14.43001553 38.29992921 15.06054688 41.39550781 C16.38650139 47.90048063 17.72752575 54.40234033 19.06817627 60.90429688 C19.49970467 62.99856671 19.93040645 65.09300486 20.36083984 67.1875 C21.72155778 73.80707904 23.08685941 80.42562894 24.46636963 87.0413208 C25.11499978 90.1531926 25.76132201 93.26554182 26.4074707 96.37792969 C26.71507543 97.8563599 27.02380116 99.3345574 27.33374023 100.8125 C27.76443112 102.86660053 28.19119018 104.92148422 28.6171875 106.9765625 C28.86065918 108.14268066 29.10413086 109.30879883 29.35498047 110.51025391 C30.05818208 114.31478223 30.52011334 118.16090674 31 122 C12.52 122 -5.96 122 -25 122 C-24.38078649 117.04629192 -23.74057232 112.29669981 -22.80078125 107.421875 C-22.56431885 106.19364014 -22.32785645 104.96540527 -22.08422852 103.69995117 C-21.82726664 102.38324592 -21.5700161 101.06659697 -21.3125 99.75 C-21.18028046 99.06982819 -21.04806091 98.38965637 -20.91183472 97.68887329 C-18.83801962 87.03047152 -16.62929323 76.40555076 -14.32592773 65.79418945 C-12.27870096 56.35460565 -10.3152029 46.89951249 -8.375 37.4375 C-8.07613891 35.98200503 -7.77723003 34.52651988 -7.47827148 33.07104492 C-6.91049348 30.30634609 -6.34287444 27.5416147 -5.77539062 24.77685547 C-4.72974732 19.68362437 -3.68342493 14.59059168 -2.625 9.5 C-2.46950684 8.74130615 -2.31401367 7.9826123 -2.15380859 7.20092773 C-1.11518429 2.23036859 -1.11518429 2.23036859 0 0 Z " fill="#D7D7D7" transform="translate(356,451)"/>
<path d="M0 0 C3.60699704 1.38865711 7.04438144 2.96954423 10.4921875 4.71484375 C11.52730469 5.23626953 12.56242188 5.75769531 13.62890625 6.29492188 C15.78517519 7.38603028 17.94142533 8.47717585 20.09765625 9.56835938 C25.34176863 12.20995884 30.5638752 14.77753872 36 17 C36 17.33 36 17.66 36 18 C25.77 18 15.54 18 5 18 C1.625 7.875 1.625 7.875 0.8125 3.9375 C0.65394531 3.18339844 0.49539063 2.42929687 0.33203125 1.65234375 C0.22246094 1.10707031 0.11289062 0.56179688 0 0 Z " fill="#D7D7D7" transform="translate(567,603)"/>
<path d="M0 0 C6.70639455 1.58185228 12.84296154 4.15591758 19.0625 7.0625 C19.8248999 7.41505859 20.5872998 7.76761719 21.37280273 8.13085938 C26.87496556 10.74993112 26.87496556 10.74993112 28 13 C24.22918278 13.02899599 20.45839417 13.04679729 16.6875 13.0625 C15.0797168 13.07506836 15.0797168 13.07506836 13.43945312 13.08789062 C12.41142578 13.09111328 11.38339844 13.09433594 10.32421875 13.09765625 C9.37635498 13.10289307 8.42849121 13.10812988 7.4519043 13.11352539 C5 13 5 13 2 12 C0.19204568 7.9083139 -0.21156222 4.44280672 0 0 Z " fill="#DADADA" transform="translate(667,644)"/>
<path d="M0 0 C5.78898419 -0.20674944 10.42932723 0.40837921 16 2 C16.33 3.32 16.66 4.64 17 6 C11.07136283 4.83348574 5.61201606 3.24480642 0 1 C0 0.67 0 0.34 0 0 Z " fill="#DCDCDC" transform="translate(723,445)"/>
</svg>
